<?xml version="1.0" encoding="UTF-8" standalone="no"?>
<svg
   xmlns:dc="http://purl.org/dc/elements/1.1/"
   xmlns:cc="http://creativecommons.org/ns#"
   xmlns:rdf="http://www.w3.org/1999/02/22-rdf-syntax-ns#"
   xmlns:svg="http://www.w3.org/2000/svg"
   xmlns="http://www.w3.org/2000/svg"
   xmlns:sodipodi="http://sodipodi.sourceforge.net/DTD/sodipodi-0.dtd"
   xmlns:inkscape="http://www.inkscape.org/namespaces/inkscape"
   version="1.0"
   width="117.000000pt"
   height="43.000000pt"
   viewBox="0 0 117.000000 43.000000"
   preserveAspectRatio="xMidYMid meet"
   id="svg2"
   inkscape:version="0.91 r13725"
   sodipodi:docname="altos_logo.svg">
  <defs
     id="defs18" />
  <sodipodi:namedview
     pagecolor="#ffffff"
     bordercolor="#666666"
     borderopacity="1"
     objecttolerance="10"
     gridtolerance="10"
     guidetolerance="10"
     inkscape:pageopacity="0"
     inkscape:pageshadow="2"
     inkscape:window-width="1920"
     inkscape:window-height="1058"
     id="namedview16"
     showgrid="false"
     inkscape:zoom="1.9692308"
     inkscape:cx="73.125001"
     inkscape:cy="26.875"
     inkscape:window-x="-32000"
     inkscape:window-y="-32000"
     inkscape:window-maximized="0"
     inkscape:current-layer="svg2"
     showguides="true"
     inkscape:guide-bbox="true">
    <sodipodi:guide
       position="-37.78125,43.0625"
       orientation="0,1"
       id="guide3337" />
    <sodipodi:guide
       position="0.40625,-2.84375"
       orientation="1,0"
       id="guide3339" />
    <sodipodi:guide
       position="116.59375,68.25"
       orientation="1,0"
       id="guide3341" />
    <sodipodi:guide
       position="40.625,-0.8125"
       orientation="0,1"
       id="guide3343" />
  </sodipodi:namedview>
  <metadata
     id="metadata4">
Created by potrace 1.12, written by Peter Selinger 2001-2015
<rdf:RDF>
  <cc:Work
     rdf:about="">
    <dc:format>image/svg+xml</dc:format>
    <dc:type
       rdf:resource="http://purl.org/dc/dcmitype/StillImage" />
  </cc:Work>
</rdf:RDF>
</metadata>
  <g
     transform="matrix(0.07965198,0,0,-0.08,-0.10174012,43)"
     id="g6"
     style="fill:#000000;stroke:none">
    <path
       d="M 129,235 C 71,96 39,34 21,20 L -5,1 65,0 c 63,0 68,2 45,13 -28,15 -29,36 -6,91 13,31 20,35 73,46 32,6 66,14 75,16 14,4 24,-8 43,-52 C 326,44 326,26 298,12 280,4 310,1 425,1 552,0 571,2 550,13 l -25,13 -5,202 -5,201 -49,-32 c -46,-29 -48,-32 -25,-37 24,-6 24,-6 27,-167 2,-133 0,-162 -13,-173 -32,-26 -57,11 -145,214 -47,108 -88,196 -92,196 -3,0 -43,-88 -89,-195 z m 97,48 c 11,-27 21,-51 22,-56 4,-7 -107,-62 -113,-56 -4,6 59,159 66,159 4,0 15,-21 25,-47 z"
       id="path8"
       inkscape:connector-curvature="0" />
    <path
       d="m 577,326 c -43,-52 -44,-56 -17,-56 19,0 20,-7 20,-119 0,-95 3,-123 16,-135 20,-20 53,-20 82,0 28,19 29,39 1,24 -40,-22 -49,2 -49,121 l 0,109 30,0 c 17,0 30,5 30,10 0,6 -13,10 -30,10 -28,0 -30,2 -30,40 0,22 -4,40 -8,40 -4,0 -24,-20 -45,-44 z"
       id="path10"
       inkscape:connector-curvature="0" />
    <path
       d="M 780,293 C 751,283 710,237 699,202 674,125 718,31 789,9 c 98,-29 181,38 181,148 0,57 -26,105 -69,128 -29,15 -91,19 -121,8 z m 99,-38 c 44,-57 47,-178 5,-220 -36,-36 -99,-7 -123,58 -19,49 -14,131 10,161 28,36 80,36 108,1 z"
       id="path12"
       inkscape:connector-curvature="0" />
    <path
       d="m 1018,285 c -63,-35 -45,-103 42,-158 52,-32 60,-41 60,-67 0,-64 -89,-60 -116,5 -8,19 -16,35 -19,35 -3,0 -5,-21 -5,-47 l 0,-48 66,-3 c 60,-2 67,-1 94,27 50,50 38,94 -38,137 -89,51 -104,79 -57,110 23,15 27,15 50,0 14,-10 31,-29 38,-44 l 11,-27 4,39 c 2,21 2,40 0,41 -2,2 -26,6 -53,9 -35,5 -58,2 -77,-9 z"
       id="path14"
       inkscape:connector-curvature="0" />
  </g>
</svg>
